<svg width="1200" height="310" viewBox="0 0 1200 310" fill="none" xmlns="http://www.w3.org/2000/svg">
  <defs>
    <linearGradient id="bg" x1="0" y1="0" x2="1200" y2="310" gradientUnits="userSpaceOnUse">
      <stop offset="0" stop-color="#020617"/>
      <stop offset="0.36" stop-color="#172554"/>
      <stop offset="0.68" stop-color="#1D4ED8"/>
      <stop offset="1" stop-color="#4F46E5"/>
    </linearGradient>
    <linearGradient id="text" x1="300" y1="70" x2="900" y2="210" gradientUnits="userSpaceOnUse">
      <stop offset="0" stop-color="#FFFFFF"/>
      <stop offset="0.52" stop-color="#DBEAFE"/>
      <stop offset="1" stop-color="#93C5FD"/>
    </linearGradient>
    <filter id="glow" x="-20%" y="-20%" width="140%" height="140%">
      <feGaussianBlur stdDeviation="8" result="blur"/>
      <feColorMatrix in="blur" type="matrix" values="0 0 0 0 0.231 0 0 0 0 0.51 0 0 0 0 0.965 0 0 0 0.72 0"/>
      <feMerge>
        <feMergeNode/>
        <feMergeNode in="SourceGraphic"/>
      </feMerge>
    </filter>
    <pattern id="grid" width="44" height="44" patternUnits="userSpaceOnUse">
      <path d="M44 0H0V44" stroke="#FFFFFF" stroke-opacity="0.08" stroke-width="1"/>
    </pattern>
    <clipPath id="rounded">
      <rect width="1200" height="310" rx="34"/>
    </clipPath>
  </defs>

  <g clip-path="url(#rounded)">
    <rect width="1200" height="310" rx="34" fill="url(#bg)"/>
    <rect width="1200" height="310" rx="34" fill="url(#grid)"/>
    <path d="M0 223C165 178 260 255 405 220C535 188 608 117 754 132C923 149 994 257 1200 196V310H0V223Z" fill="#020617" fill-opacity="0.55"/>
    <path d="M0 228C165 183 260 260 405 225C535 193 608 122 754 137C923 154 994 262 1200 201" stroke="#3B82F6" stroke-opacity="0.9" stroke-width="3"/>
    <path d="M104 82H1096" stroke="#FFFFFF" stroke-opacity="0.16" stroke-width="1"/>
    <path d="M104 238H1096" stroke="#FFFFFF" stroke-opacity="0.16" stroke-width="1"/>

    <text x="600" y="166" text-anchor="middle" font-family="JetBrains Mono, Fira Code, Consolas, monospace" font-size="86" font-weight="800" letter-spacing="8" fill="url(#text)" filter="url(#glow)">CANFLY</text>
    <text x="600" y="205" text-anchor="middle" font-family="JetBrains Mono, Fira Code, Consolas, monospace" font-size="20" font-weight="600" letter-spacing="2" fill="#E5E7EB">SOLANA SYSTEMS / LOCAL AI TOOLS / WORKFLOW AUTOMATION</text>

    <circle cx="170" cy="118" r="5" fill="#3B82F6">
      <animate attributeName="opacity" values="0.25;1;0.25" dur="2.4s" repeatCount="indefinite"/>
    </circle>
    <circle cx="1028" cy="188" r="5" fill="#FFFFFF">
      <animate attributeName="opacity" values="1;0.25;1" dur="2.4s" repeatCount="indefinite"/>
    </circle>
    <rect x="101" y="79" width="998" height="160" rx="20" stroke="#FFFFFF" stroke-opacity="0.18" stroke-width="1"/>
  </g>
</svg>
